<?xml version="1.0" encoding="UTF-8" standalone="no"?>
<!-- Created with Inkscape (http://www.inkscape.org/) -->

<svg
   xmlns:dc="http://purl.org/dc/elements/1.1/"
   xmlns:cc="http://creativecommons.org/ns#"
   xmlns:rdf="http://www.w3.org/1999/02/22-rdf-syntax-ns#"
   xmlns:svg="http://www.w3.org/2000/svg"
   xmlns="http://www.w3.org/2000/svg"
   xmlns:sodipodi="http://sodipodi.sourceforge.net/DTD/sodipodi-0.dtd"
   xmlns:inkscape="http://www.inkscape.org/namespaces/inkscape"
   width="500pt"
   height="500pt"
   viewBox="0 0 624.99997 624.99999"
   id="svg2"
   version="1.1"
   inkscape:version="0.91 r13725"
   sodipodi:docname="wet.svg">
  <defs
     id="defs4" />
  <sodipodi:namedview
     id="base"
     pagecolor="#000000"
     bordercolor="#666666"
     borderopacity="1.0"
     inkscape:pageopacity="0"
     inkscape:pageshadow="2"
     inkscape:zoom="0.70710678"
     inkscape:cx="258.99923"
     inkscape:cy="400.66036"
     inkscape:document-units="px"
     inkscape:current-layer="layer1"
     showgrid="false"
     inkscape:snap-bbox="true"
     inkscape:window-width="1825"
     inkscape:window-height="1046"
     inkscape:window-x="-11"
     inkscape:window-y="-11"
     inkscape:window-maximized="1"
     units="pt" />
  <metadata
     id="metadata7">
    <rdf:RDF>
      <cc:Work
         rdf:about="">
        <dc:format>image/svg+xml</dc:format>
        <dc:type
           rdf:resource="http://purl.org/dc/dcmitype/StillImage" />
        <dc:title></dc:title>
      </cc:Work>
    </rdf:RDF>
  </metadata>
  <g
     inkscape:label="Layer 1"
     inkscape:groupmode="layer"
     id="layer1"
     transform="translate(0,-427.36222)">
    <path
       style="opacity:1;fill:#ffffff;fill-opacity:1;stroke:none;stroke-width:4;stroke-linecap:butt;stroke-miterlimit:4;stroke-dasharray:none;stroke-dashoffset:0;stroke-opacity:1"
       d="m 153.24568,855.71731 c 0,11.09938 -8.99782,20.0972 -20.0972,20.0972 -11.09938,0 -20.09719,-8.99782 -20.09719,-20.0972 -3.6903,-16.96529 35.86816,-31.38101 40.3603,-32.96034 0,0 1.88103,29.39911 -0.16591,32.96034"
       id="path4283"
       inkscape:connector-curvature="0"
       sodipodi:nodetypes="csccc" />
    <path
       sodipodi:nodetypes="csccc"
       inkscape:connector-curvature="0"
       id="path4286"
       d="m 251.1829,880.38312 c 0,11.09938 -8.99783,20.09719 -20.09721,20.09719 -11.09938,0 -20.0972,-8.99781 -20.0972,-20.09719 -3.69028,-16.96531 35.86817,-31.38103 40.36032,-32.96035 0,0 1.88102,29.3991 -0.16591,32.96035"
       style="opacity:1;fill:#ffffff;fill-opacity:1;stroke:none;stroke-width:4;stroke-linecap:butt;stroke-miterlimit:4;stroke-dasharray:none;stroke-dashoffset:0;stroke-opacity:1" />
    <path
       inkscape:connector-curvature="0"
       style="opacity:1;fill:#ffffff;fill-opacity:1;stroke:none;stroke-width:4;stroke-linecap:butt;stroke-miterlimit:4;stroke-dasharray:none;stroke-dashoffset:0;stroke-opacity:1"
       d="m 365.41098,489.86222 a 111.24872,111.24872 0 0 0 -98.63572,59.99652 98.360148,98.360148 0 0 0 -20.75315,-2.33712 98.360148,98.360148 0 0 0 -95.32879,74.6313 84.793231,84.793231 0 0 0 -84.432862,84.77998 84.793231,84.793231 0 0 0 84.793232,84.79323 84.793231,84.793231 0 0 0 56.59153,-21.8634 84.793231,84.793231 0 0 0 56.69223,21.8634 84.793231,84.793231 0 0 0 44.82647,-12.87532 84.793231,84.793231 0 0 0 44.71518,12.87532 84.793231,84.793231 0 0 0 48.58121,-15.42177 102.43022,102.43022 0 0 0 53.84901,15.42177 A 102.43022,102.43022 0 0 0 558.73954,689.2959 102.43022,102.43022 0 0 0 475.92041,588.79738 111.24872,111.24872 0 0 0 365.41098,489.86222 Z"
       id="path4288" />
    <path
       sodipodi:nodetypes="csccc"
       inkscape:connector-curvature="0"
       id="path4305"
       d="m 351.82615,903.68359 c 0,11.09938 -8.99782,20.09721 -20.0972,20.09721 -11.09938,0 -20.09719,-8.99783 -20.09719,-20.09721 -3.6903,-16.96529 35.86816,-31.38101 40.3603,-32.96033 0,0 1.88103,29.3991 -0.16591,32.96033"
       style="opacity:1;fill:#ffffff;fill-opacity:1;stroke:none;stroke-width:4;stroke-linecap:butt;stroke-miterlimit:4;stroke-dasharray:none;stroke-dashoffset:0;stroke-opacity:1" />
    <path
       style="opacity:1;fill:#ffffff;fill-opacity:1;stroke:none;stroke-width:4;stroke-linecap:butt;stroke-miterlimit:4;stroke-dasharray:none;stroke-dashoffset:0;stroke-opacity:1"
       d="m 398.58989,969.76502 c 0,11.09938 -8.99782,20.09719 -20.0972,20.09719 -11.09938,0 -20.09721,-8.99781 -20.09721,-20.09719 -3.69028,-16.96531 35.86818,-31.38102 40.36032,-32.96035 0,0 1.88103,29.3991 -0.16591,32.96035"
       id="path4307"
       inkscape:connector-curvature="0"
       sodipodi:nodetypes="csccc" />
    <path
       sodipodi:nodetypes="csccc"
       inkscape:connector-curvature="0"
       id="path4311"
       d="m 466.70204,846.01197 c 0,11.09938 -8.99782,20.09719 -20.0972,20.09719 -11.09938,0 -20.09721,-8.99781 -20.09721,-20.09719 -3.69028,-16.96531 35.86818,-31.38102 40.36032,-32.96035 0,0 1.88103,29.3991 -0.16591,32.96035"
       style="opacity:1;fill:#ffffff;fill-opacity:1;stroke:none;stroke-width:4;stroke-linecap:butt;stroke-miterlimit:4;stroke-dasharray:none;stroke-dashoffset:0;stroke-opacity:1" />
    <path
       style="opacity:1;fill:#ffffff;fill-opacity:1;stroke:none;stroke-width:4;stroke-linecap:butt;stroke-miterlimit:4;stroke-dasharray:none;stroke-dashoffset:0;stroke-opacity:1"
       d="m 257.81221,968.91777 c 0,11.09938 -8.99783,20.0972 -20.09721,20.0972 -11.09938,0 -20.09719,-8.99782 -20.09719,-20.0972 -3.69029,-16.9653 35.86816,-31.38102 40.36031,-32.96034 0,0 1.88102,29.3991 -0.16591,32.96034"
       id="path4313"
       inkscape:connector-curvature="0"
       sodipodi:nodetypes="csccc" />
  </g>
</svg>
